# xmcd
#
# Track frame offsets:
#	150
#	5159
#	71539
#	73941
#	76246
#	103303
#	104704
#	110382
#	163640
#	166658
#	200271
#	235193
#	237383
#	271494
#
# Disc length: 3635 seconds
# Revision: 0
# Processed by: cddbd v1.5.2PL0 Copyright (c) Steve Scherf et al.
# Submitted via: dBpowerAMP V12.0
#
DISCID=c20e310e
DTITLE=Hale Dwoskin - The Sedona Method Course CD 15
DYEAR=2007
DGENRE=Speech
TTITLE0=Walking in the Other Persons Shoes
TTITLE1=Release on Walking in the Other Persons Shoes
TTITLE2=Summary of Release
TTITLE3=Dissolving Beliefs
TTITLE4=Release on Beliefs
TTITLE5=Summary of Release
TTITLE6=Scarcity
TTITLE7=Release on Scarcity
TTITLE8=Summary of Release
TTITLE9=Holistic Release on Effortless Relationships
TTITLE10=Release on Relationship Goal Action Steps
TTITLE11=Summary of Release
TTITLE12=Release on Visualization of Your Ideal Relationship
TTITLE13=Conclusion
EXTD=
EXTT0=
EXTT1=
EXTT2=
EXTT3=
EXTT4=
EXTT5=
EXTT6=
EXTT7=
EXTT8=
EXTT9=
EXTT10=
EXTT11=
EXTT12=
EXTT13=
PLAYORDER=
